<svg width="47" height="38" viewBox="0 0 47 38" fill="none" xmlns="http://www.w3.org/2000/svg">
<path fill-rule="evenodd" clip-rule="evenodd" d="M45.5174 27.4125H43.3305V11.5641C43.3305 10.7345 42.6667 10.0618 41.8479 10.0618H37.2147V1.64942C37.2147 0.819833 36.5508 0.147217 35.732 0.147217H11.2681C10.4494 0.147217 9.78549 0.819833 9.78549 1.64942V10.0618H5.15228C4.3335 10.0618 3.66964 10.7345 3.66964 11.5641V27.4125H1.48264C0.663697 27.4125 0 28.0851 0 28.9147C0 29.7442 0.663697 30.4169 1.48264 30.4169H22.0174V34.8484H18.6073C17.7885 34.8484 17.1246 35.521 17.1246 36.3506C17.1246 37.1802 17.7885 37.8528 18.6073 37.8528H28.3927C29.2115 37.8528 29.8754 37.1802 29.8754 36.3506C29.8754 35.521 29.2115 34.8484 28.3927 34.8484H24.9826V30.4169H45.5174C46.3361 30.4169 47 29.7442 47 28.9147C47 28.0851 46.3361 27.4125 45.5174 27.4125ZM12.7508 3.15162H34.2492V10.0618H12.7508V3.15162ZM40.3651 15.0439V13.0663H6.63507V15.0439C6.93163 15.0982 7.2092 15.2422 7.42315 15.4593C7.70056 15.7388 7.8577 16.1263 7.8577 16.5214C7.8577 16.9164 7.70056 17.304 7.42315 17.5833C7.20952 17.8002 6.93116 17.9444 6.63507 17.9987V21.4643C7.22566 21.3955 7.55845 21.0721 8.16186 20.437C8.94867 19.6085 10.0264 18.4743 12.0842 18.4743C14.1423 18.4743 15.2198 19.6085 16.0066 20.4368C16.6931 21.1593 17.0287 21.4787 17.7929 21.4787C18.5569 21.4787 18.8926 21.1593 19.5787 20.437L19.5788 20.4369C20.3656 19.6086 21.4431 18.4743 23.5009 18.4743C25.5584 18.4743 26.6359 19.6084 27.4228 20.4366L27.4232 20.437C28.1093 21.1593 28.4448 21.4787 29.2088 21.4787C29.9729 21.4787 30.3084 21.1593 30.9945 20.437C31.7813 19.6087 32.859 18.4743 34.9167 18.4743C36.9744 18.4743 38.0517 19.6084 38.8385 20.4367L38.8388 20.437C39.442 21.0721 39.7747 21.3953 40.3651 21.4643V17.9989C40.0692 17.9445 39.7911 17.8004 39.5759 17.5833C39.3001 17.304 39.1415 16.9164 39.1415 16.5214C39.1415 16.1263 39.3001 15.7388 39.5759 15.4593C39.79 15.2422 40.0687 15.0981 40.3651 15.0439ZM6.63491 24.4743C8.52377 24.3829 9.54527 23.3129 10.2979 22.5204C10.9844 21.7981 11.3199 21.4787 12.0841 21.4787C12.8482 21.4787 13.1839 21.7981 13.8701 22.5204C14.657 23.3487 15.7349 24.4831 17.7927 24.4831C19.8506 24.4831 20.9285 23.3487 21.7151 22.5204C22.4013 21.7981 22.7369 21.4787 23.5008 21.4787C24.2647 21.4787 24.6003 21.7981 25.2865 22.5204L25.287 22.5209C26.0739 23.3492 27.1512 24.4831 29.2087 24.4831C31.2665 24.4831 32.344 23.3488 33.1308 22.5205L33.1309 22.5204C33.8171 21.7981 34.1527 21.4787 34.9166 21.4787C35.6804 21.4787 36.0159 21.7981 36.7021 22.5204C37.4549 23.3126 38.4762 24.3827 40.3649 24.4743V27.4125H6.63491V24.4743ZM18.8396 17.5833C18.5639 17.8628 18.1814 18.0236 17.7915 18.0236C17.4014 18.0236 17.0203 17.8628 16.7431 17.5833C16.4672 17.304 16.3088 16.9164 16.3088 16.5214C16.3088 16.1263 16.4672 15.7388 16.7431 15.4593C17.0189 15.1798 17.4014 15.0192 17.7915 15.0192C18.1828 15.0192 18.5639 15.1798 18.8396 15.4593C19.1168 15.7388 19.274 16.1263 19.274 16.5214C19.274 16.9164 19.1168 17.304 18.8396 17.5833ZM29.2077 18.0236C29.5977 18.0236 29.9801 17.8628 30.2558 17.5833C30.5331 17.304 30.6904 16.9164 30.6904 16.5214C30.6904 16.1263 30.5331 15.7388 30.2558 15.4593C29.9801 15.1798 29.5991 15.0192 29.2077 15.0192C28.8178 15.0192 28.4352 15.1798 28.1595 15.4593C27.8837 15.7388 27.7251 16.1263 27.7251 16.5214C27.7251 16.9164 27.8837 17.304 28.1595 17.5833C28.4352 17.8628 28.8178 18.0236 29.2077 18.0236ZM15.1122 5.54466C15.388 5.26519 15.7705 5.10453 16.1604 5.10453C16.5503 5.10453 16.933 5.26519 17.2085 5.54466C17.4859 5.82413 17.643 6.21166 17.643 6.60674C17.643 7.00181 17.4859 7.38934 17.2085 7.66865C16.933 7.94812 16.5519 8.10894 16.1604 8.10894C15.7705 8.10894 15.388 7.94812 15.1122 7.66865C14.8363 7.38934 14.6778 7.00181 14.6778 6.60674C14.6778 6.21166 14.8363 5.82413 15.1122 5.54466ZM23.4995 5.10453C23.1096 5.10453 22.7271 5.26519 22.4513 5.54466C22.1755 5.82413 22.0169 6.21166 22.0169 6.60674C22.0169 7.00181 22.1755 7.38934 22.4513 7.66865C22.7271 7.94812 23.1096 8.10894 23.4995 8.10894C23.891 8.10894 24.2721 7.94812 24.5476 7.66865C24.825 7.38934 24.9822 7.00181 24.9822 6.60674C24.9822 6.21166 24.825 5.82413 24.5476 5.54466C24.2721 5.26519 23.8895 5.10453 23.4995 5.10453ZM29.7904 5.54466C30.0662 5.26519 30.4487 5.10453 30.8386 5.10453C31.2302 5.10453 31.6112 5.26519 31.8867 5.54466C32.1641 5.82413 32.3213 6.21166 32.3213 6.60674C32.3213 7.00181 32.1626 7.38934 31.8867 7.66865C31.6112 7.94812 31.2302 8.10894 30.8386 8.10894C30.4487 8.10894 30.0662 7.94812 29.7904 7.66865C29.5146 7.38934 29.356 7.00181 29.356 6.60674C29.356 6.21166 29.5146 5.82413 29.7904 5.54466Z" fill="#555555"/>
</svg>
