<svg width="48" height="40" viewBox="0 0 48 40" fill="none" xmlns="http://www.w3.org/2000/svg">
<path fill-rule="evenodd" clip-rule="evenodd" d="M47.6096 13.0497C47.1677 12.3506 46.2366 12.138 45.5299 12.575L30.4086 21.9254V16.6478C30.4086 14.8594 29.1497 13.2583 26.8467 12.0908L39.7522 2.72733C40.4242 2.23952 40.5695 1.30533 40.0768 0.640314C39.5834 -0.0250242 38.639 -0.16861 37.9672 0.31904L23.4224 10.872C21.6743 10.4513 19.7183 10.2274 17.6943 10.2274C14.4949 10.2274 11.4631 10.7855 9.15833 11.7992C6.46373 12.9839 4.98024 14.7057 4.98024 16.6476V24.2527L0.61675 27.4186C-0.0554109 27.9065 -0.2007 28.8408 0.292186 29.5058C0.587918 29.9047 1.04601 30.116 1.51039 30.116C1.82013 30.116 2.13262 30.0218 2.40161 29.8269L4.98008 27.9562V28.6229C4.98008 30.5648 6.46373 32.2865 9.15801 33.4714C9.66233 33.6931 10.2029 33.8916 10.771 34.0685L5.68929 37.211C4.9825 37.6481 4.76762 38.5692 5.20929 39.2685C5.49568 39.7217 5.98743 39.9704 6.49063 39.9704C6.76365 39.9704 7.04037 39.897 7.28891 39.7433L15.0955 34.916C15.9415 34.999 16.811 35.043 17.6943 35.043C20.8937 35.043 23.9253 34.4848 26.2305 33.4714C28.9248 32.2865 30.4085 30.5648 30.4085 28.6229V25.4472L47.1294 15.1076C47.8362 14.6701 48.0511 13.7492 47.6096 13.0497ZM17.6943 13.2137C23.5232 13.2137 27.3903 15.2806 27.3903 16.6478C27.3903 18.0148 23.5231 20.0819 17.6943 20.0819C11.8655 20.0819 7.99828 18.0148 7.99828 16.6478C7.99828 15.2805 11.8655 13.2137 17.6943 13.2137ZM7.99828 20.9101V28.6226C7.99828 29.7119 10.4555 31.2446 14.4026 31.8228L27.3903 23.7915V20.9101C27.033 21.1174 26.6464 21.3133 26.2305 21.4959C23.9253 22.5095 20.8937 23.0677 17.6943 23.0677C14.4949 23.0677 11.4635 22.5095 9.15817 21.4959C8.74228 21.3131 8.35554 21.1174 7.99828 20.9101ZM27.3903 28.6226C27.3903 29.8102 24.4708 31.5253 19.8833 31.9552L27.3903 27.3131V28.6226ZM17.6943 18.8263C16.7546 18.8263 15.855 18.7423 15.1614 18.59C13.4299 18.2092 13.0663 17.3237 13.0663 16.6478C13.0663 15.9718 13.4297 15.0862 15.1614 14.7053C15.855 14.5528 16.7544 14.469 17.6943 14.469C18.6343 14.469 19.5337 14.5528 20.2272 14.7053C21.9589 15.0861 22.3224 15.9718 22.3224 16.6478C22.3224 17.3237 21.9587 18.2092 20.2272 18.59C19.5337 18.7423 18.6341 18.8263 17.6943 18.8263Z" fill="#555555"/>
</svg>
