<svg width="47" height="34" viewBox="0 0 47 34" fill="none" xmlns="http://www.w3.org/2000/svg">
<path fill-rule="evenodd" clip-rule="evenodd" d="M44.1618 12.3855C45.8301 13.05 47 14.5729 47 16.3418C47 17.383 46.5949 18.339 45.9214 19.0848C46.5949 19.8307 47 20.787 47 21.8282C47 23.4423 46.0255 24.8516 44.5873 25.5905V28.3676C44.5873 31.4083 42.1144 33.8824 39.0747 33.8824H7.92528C4.88563 33.8824 2.41267 31.4084 2.41267 28.3676V25.5905C0.974498 24.8516 0 23.4423 0 21.8282C0 20.787 0.405118 19.8307 1.07863 19.0849C0.405118 18.339 0 17.383 0 16.3418C0 14.5729 1.17009 13.0497 2.83804 12.3855C2.50366 11.8629 2.49844 11.1696 2.87982 10.6327C7.55671 4.04871 15.2653 0.117676 23.5 0.117676C31.7342 0.117676 39.4425 4.04823 44.1199 10.6324C44.5016 11.1693 44.496 11.8632 44.1618 12.3855ZM42.2905 23.0025C43.1267 23.0025 43.8603 22.4536 43.8603 21.8282C43.8603 21.2024 43.1267 20.6537 42.2905 20.6535H25.5329L23.1822 23.0025H42.2905ZM15.8162 25.9262L10.5402 20.6535L21.0924 20.6538L15.8162 25.9262ZM3.13966 21.8282C3.13966 22.4536 3.87331 23.0025 4.70949 23.0025H8.4505L6.09987 20.6535H4.70949C3.87331 20.6535 3.13966 21.2024 3.13966 21.8282ZM4.70949 17.5162C3.87331 17.5162 3.13966 16.9676 3.13966 16.3418C3.13966 15.7161 3.87331 15.1672 4.70949 15.1672H42.2905C43.1267 15.1672 43.8603 15.7161 43.8603 16.3418C43.8603 16.9676 43.1267 17.5162 42.2905 17.5162H4.70949ZM41.2524 12.0297C37.137 6.52612 30.5416 3.25516 23.5002 3.25516C16.4582 3.25516 9.86272 6.52644 5.74745 12.0297H41.2524ZM7.92528 30.7449C6.61687 30.7449 5.55233 29.6787 5.55233 28.3676V26.14H11.5902L14.7063 29.2539C15.0129 29.5604 15.4146 29.7135 15.8164 29.7135C16.218 29.7135 16.6198 29.5603 16.9265 29.2539L20.0427 26.14H41.4478V28.3676C41.4477 29.6787 40.383 30.7449 39.0747 30.7449H7.92528ZM24.3332 9.56272C24.1134 9.78237 23.8103 9.90778 23.4995 9.90778C23.1901 9.90778 22.8873 9.78237 22.6674 9.56272C22.4476 9.34275 22.3222 9.04007 22.3222 8.73122C22.3222 8.42048 22.4476 8.1178 22.6674 7.89814C22.8873 7.68007 23.1901 7.55466 23.4995 7.55466C23.8103 7.55466 24.1134 7.68007 24.3332 7.89814C24.5514 8.1178 24.6771 8.42048 24.6771 8.73122C24.6771 9.04007 24.5514 9.34275 24.3332 9.56272ZM20.0413 6.32497C20.3521 6.32497 20.6552 6.19925 20.8732 5.97959C21.0932 5.75994 21.2187 5.45726 21.2187 5.14809C21.2187 4.83735 21.0932 4.53467 20.8732 4.31502C20.6552 4.09694 20.3521 3.97154 20.0413 3.97154C19.7303 3.97154 19.4275 4.09694 19.2092 4.31502C18.9894 4.53467 18.8638 4.83735 18.8638 5.14809C18.8638 5.45726 18.9894 5.75994 19.2092 5.97959C19.4275 6.19925 19.7303 6.32497 20.0413 6.32497ZM27.7916 5.97959C27.5718 6.19925 27.2687 6.32497 26.9579 6.32497C26.6485 6.32497 26.3455 6.19925 26.1258 5.97959C25.906 5.75994 25.7804 5.45726 25.7804 5.14809C25.7804 4.83735 25.906 4.53467 26.1258 4.31502C26.3456 4.09694 26.6487 3.97154 26.9579 3.97154C27.2687 3.97154 27.5718 4.09694 27.7916 4.31502C28.0098 4.53467 28.137 4.83735 28.137 5.14809C28.137 5.45726 28.0098 5.75994 27.7916 5.97959ZM13.123 9.90778C13.4339 9.90778 13.7368 9.78237 13.9566 9.56272C14.1749 9.34275 14.3003 9.04007 14.3003 8.73122C14.3003 8.42048 14.1749 8.1178 13.9566 7.89814C13.7368 7.68007 13.4339 7.55466 13.123 7.55466C12.8138 7.55466 12.5109 7.68007 12.2909 7.89814C12.0712 8.1178 11.9454 8.42048 11.9454 8.73122C11.9454 9.04007 12.0712 9.34275 12.2909 9.56272C12.5109 9.78237 12.8138 9.90778 13.123 9.90778ZM34.7097 9.56272C34.4898 9.78237 34.1869 9.90778 33.8759 9.90778C33.5667 9.90778 33.2638 9.78237 33.044 9.56272C32.824 9.34464 32.6985 9.04007 32.6985 8.73122C32.6985 8.42048 32.824 8.1178 33.044 7.89814C33.2638 7.68007 33.5665 7.55466 33.8759 7.55466C34.1853 7.55466 34.4898 7.68007 34.7097 7.89814C34.9278 8.1178 35.0535 8.42048 35.0535 8.73122C35.0535 9.04007 34.9278 9.34275 34.7097 9.56272Z" fill="#555555"/>
</svg>
