<svg width="46" height="47" viewBox="0 0 46 47" fill="none" xmlns="http://www.w3.org/2000/svg">
<path fill-rule="evenodd" clip-rule="evenodd" d="M29.1605 5.59126H44.2234C45.1579 5.59126 45.9156 6.34991 45.9153 7.28547C45.9153 8.2212 45.1576 8.97985 44.2231 8.97985H29.1602V14.7632C30.3584 14.2582 31.6733 13.978 33.0528 13.978C38.5588 13.978 43.0438 18.4248 43.1194 23.9189C43.4637 24.2289 43.6813 24.6772 43.6813 25.1771C43.6813 37.2104 33.9026 46.9998 21.883 46.9998C9.86313 46.9998 0.0844116 37.2104 0.0844116 25.1771C0.0844116 24.6772 0.302082 24.2289 0.64637 23.9189C0.721772 18.4249 5.20717 13.978 10.7129 13.978C12.0928 13.978 13.4073 14.2595 14.6056 14.7651V8.97985H13.5055C12.571 8.97985 11.813 8.2212 11.813 7.28547C11.813 6.34991 12.571 5.59126 13.5055 5.59126H14.6056V3.38859H13.5055C12.571 3.38859 11.813 2.62994 11.813 1.69422C11.813 0.758646 12.571 0 13.5055 0H44.2234C45.1579 0 45.9156 0.758646 45.9156 1.69422C45.9156 2.62994 45.1579 3.38859 44.2234 3.38859H29.1605V5.59126ZM23.5754 5.59126H25.7758V3.38859H23.5754V5.59126ZM17.9906 3.38859H20.1907V5.59126H17.9906V3.38859ZM20.1905 13.0114V8.97985H17.9904V13.6107C18.6913 13.3368 19.4273 13.1329 20.1905 13.0114ZM32.6197 23.4831C32.6178 23.3399 32.6151 23.1966 32.6077 23.0548C32.7441 22.9938 32.8943 22.9578 33.0531 22.9578C33.4486 22.9578 33.795 23.1686 33.9889 23.4831H32.6197ZM26.5855 23.4831H29.2345C29.1564 19.49 25.8896 16.2653 21.8832 16.2655C17.8763 16.2655 14.6095 19.4901 14.5314 23.4831H17.18C17.2963 20.9867 19.3613 18.9915 21.883 18.9915C24.4048 18.9915 26.4691 20.9868 26.5855 23.4831ZM23.1864 23.4831H20.5797C20.6856 22.858 21.2289 22.3801 21.8832 22.3801C22.537 22.3801 23.0801 22.8578 23.1864 23.4831ZM9.77713 23.4831H11.1464C11.1484 23.3391 11.151 23.1955 11.1584 23.0533C11.0223 22.9925 10.8716 22.9578 10.7129 22.9578C10.3174 22.9578 9.97109 23.1686 9.77713 23.4831ZM10.7129 17.3666C11.4804 17.3666 12.2162 17.5011 12.9031 17.7408C12.4959 18.3612 12.1516 19.0258 11.8781 19.7264C11.5063 19.6257 11.1165 19.5691 10.7129 19.5691C8.43507 19.5691 6.54955 21.2785 6.26612 23.4829H4.05416C4.34724 20.0616 7.22073 17.3666 10.7129 17.3666ZM3.54643 26.8717C4.40383 36.2446 12.3005 43.6114 21.8832 43.6114C31.4656 43.6114 39.3622 36.2446 40.2196 26.8717H3.54643ZM39.7118 23.4831H37.5C37.2162 21.2785 35.3313 19.5692 33.0531 19.5692C32.6496 19.5692 32.2591 19.6237 31.887 19.7242C31.6132 19.0234 31.2689 18.3585 30.8614 17.7383C31.5484 17.4981 32.2854 17.3666 33.0531 17.3666C36.5453 17.3666 39.4187 20.0616 39.7118 23.4831ZM23.5754 13.0114C24.3386 13.1328 25.0746 13.3368 25.7758 13.6107V8.97985H23.5754V13.0114Z" fill="#555555"/>
</svg>
